<svg width="92" height="18" viewBox="0 0 92 18" fill="none" xmlns="http://www.w3.org/2000/svg">
<path d="M0.490594 17L4.90659 0.199999H10.4266L14.8426 17H11.5786L10.6666 13.304H4.66659L3.75459 17H0.490594ZM5.41059 10.376H9.92259L7.88259 2.192H7.45059L5.41059 10.376ZM20.6455 17.336C19.7975 17.336 19.0375 17.192 18.3655 16.904C17.6935 16.6 17.1575 16.168 16.7575 15.608C16.3735 15.032 16.1815 14.336 16.1815 13.52C16.1815 12.704 16.3735 12.024 16.7575 11.48C17.1575 10.92 17.7015 10.504 18.3895 10.232C19.0935 9.944 19.8935 9.8 20.7895 9.8H24.0535V9.128C24.0535 8.568 23.8775 8.112 23.5255 7.76C23.1735 7.392 22.6135 7.208 21.8455 7.208C21.0935 7.208 20.5335 7.384 20.1655 7.736C19.7975 8.072 19.5575 8.512 19.4455 9.056L16.6615 8.12C16.8535 7.512 17.1575 6.96 17.5735 6.464C18.0055 5.952 18.5735 5.544 19.2775 5.24C19.9975 4.92 20.8695 4.76 21.8935 4.76C23.4615 4.76 24.7015 5.152 25.6135 5.936C26.5255 6.72 26.9815 7.856 26.9815 9.344V13.784C26.9815 14.264 27.2055 14.504 27.6535 14.504H28.6135V17H26.5975C26.0055 17 25.5175 16.856 25.1335 16.568C24.7495 16.28 24.5575 15.896 24.5575 15.416V15.392H24.1015C24.0375 15.584 23.8935 15.84 23.6695 16.16C23.4455 16.464 23.0935 16.736 22.6135 16.976C22.1335 17.216 21.4775 17.336 20.6455 17.336ZM21.1735 14.888C22.0215 14.888 22.7095 14.656 23.2375 14.192C23.7815 13.712 24.0535 13.08 24.0535 12.296V12.056H21.0055C20.4455 12.056 20.0055 12.176 19.6855 12.416C19.3655 12.656 19.2055 12.992 19.2055 13.424C19.2055 13.856 19.3735 14.208 19.7095 14.48C20.0455 14.752 20.5335 14.888 21.1735 14.888ZM30.8245 17V0.199999H33.8485V9.488H34.2805L38.2165 5.096H42.1525L36.6565 10.856L42.3445 17H38.4565L34.2805 12.272H33.8485V17H30.8245ZM47.833 17.336C46.985 17.336 46.225 17.192 45.553 16.904C44.881 16.6 44.345 16.168 43.945 15.608C43.561 15.032 43.369 14.336 43.369 13.52C43.369 12.704 43.561 12.024 43.945 11.48C44.345 10.92 44.889 10.504 45.577 10.232C46.281 9.944 47.081 9.8 47.977 9.8H51.241V9.128C51.241 8.568 51.065 8.112 50.713 7.76C50.361 7.392 49.801 7.208 49.033 7.208C48.281 7.208 47.721 7.384 47.353 7.736C46.985 8.072 46.745 8.512 46.633 9.056L43.849 8.12C44.041 7.512 44.345 6.96 44.761 6.464C45.193 5.952 45.761 5.544 46.465 5.24C47.185 4.92 48.057 4.76 49.081 4.76C50.649 4.76 51.889 5.152 52.801 5.936C53.713 6.72 54.169 7.856 54.169 9.344V13.784C54.169 14.264 54.393 14.504 54.841 14.504H55.801V17H53.785C53.193 17 52.705 16.856 52.321 16.568C51.937 16.28 51.745 15.896 51.745 15.416V15.392H51.289C51.225 15.584 51.081 15.84 50.857 16.16C50.633 16.464 50.281 16.736 49.801 16.976C49.321 17.216 48.665 17.336 47.833 17.336ZM48.361 14.888C49.209 14.888 49.897 14.656 50.425 14.192C50.969 13.712 51.241 13.08 51.241 12.296V12.056H48.193C47.633 12.056 47.193 12.176 46.873 12.416C46.553 12.656 46.393 12.992 46.393 13.424C46.393 13.856 46.561 14.208 46.897 14.48C47.233 14.752 47.721 14.888 48.361 14.888ZM58.012 17V5.096H60.988V6.44H61.42C61.596 5.96 61.884 5.608 62.284 5.384C62.7 5.16 63.18 5.048 63.724 5.048H65.164V7.736H63.676C62.908 7.736 62.276 7.944 61.78 8.36C61.284 8.76 61.036 9.384 61.036 10.232V17H58.012ZM72.1904 17.336C70.6384 17.336 69.3664 17 68.3744 16.328C67.3824 15.656 66.7824 14.696 66.5744 13.448L69.3584 12.728C69.4704 13.288 69.6544 13.728 69.9104 14.048C70.1824 14.368 70.5104 14.6 70.8944 14.744C71.2944 14.872 71.7264 14.936 72.1904 14.936C72.8944 14.936 73.4144 14.816 73.7504 14.576C74.0864 14.32 74.2544 14.008 74.2544 13.64C74.2544 13.272 74.0944 12.992 73.7744 12.8C73.4544 12.592 72.9424 12.424 72.2384 12.296L71.5664 12.176C70.7344 12.016 69.9744 11.8 69.2864 11.528C68.5984 11.24 68.0464 10.848 67.6304 10.352C67.2144 9.856 67.0064 9.216 67.0064 8.432C67.0064 7.248 67.4384 6.344 68.3024 5.72C69.1664 5.08 70.3024 4.76 71.7104 4.76C73.0384 4.76 74.1424 5.056 75.0224 5.648C75.9024 6.24 76.4784 7.016 76.7504 7.976L73.9424 8.84C73.8144 8.232 73.5504 7.8 73.1504 7.544C72.7664 7.288 72.2864 7.16 71.7104 7.16C71.1344 7.16 70.6944 7.264 70.3904 7.472C70.0864 7.664 69.9344 7.936 69.9344 8.288C69.9344 8.672 70.0944 8.96 70.4144 9.152C70.7344 9.328 71.1664 9.464 71.7104 9.56L72.3824 9.68C73.2784 9.84 74.0864 10.056 74.8064 10.328C75.5424 10.584 76.1184 10.96 76.5344 11.456C76.9664 11.936 77.1824 12.592 77.1824 13.424C77.1824 14.672 76.7264 15.64 75.8144 16.328C74.9184 17 73.7104 17.336 72.1904 17.336ZM79.8323 17V0.199999H82.8563V6.56H83.2883C83.4163 6.304 83.6163 6.048 83.8883 5.792C84.1603 5.536 84.5203 5.328 84.9683 5.168C85.4323 4.992 86.0163 4.904 86.7203 4.904C87.6483 4.904 88.4563 5.12 89.1443 5.552C89.8483 5.968 90.3923 6.552 90.7763 7.304C91.1603 8.04 91.3523 8.904 91.3523 9.896V17H88.3283V10.136C88.3283 9.24 88.1043 8.568 87.6563 8.12C87.2243 7.672 86.6003 7.448 85.7843 7.448C84.8563 7.448 84.1363 7.76 83.6243 8.384C83.1123 8.992 82.8563 9.848 82.8563 10.952V17H79.8323Z" fill="black"/>
</svg>
